<mxfile host="app.diagrams.net" modified="2021-05-31T10:10:42.884Z" agent="5.0 (X11)" etag="5g_pqmNm3vIUHJ98fb2p" version="14.7.3" type="github">
  <diagram id="C5RBs43oDa-KdzZeNtuy" name="Page-1">
    <mxGraphModel dx="1642" dy="549" grid="1" gridSize="10" guides="1" tooltips="1" connect="1" arrows="1" fold="1" page="1" pageScale="1" pageWidth="827" pageHeight="1169" math="0" shadow="0">
      <root>
        <mxCell id="WIyWlLk6GJQsqaUBKTNV-0" />
        <mxCell id="WIyWlLk6GJQsqaUBKTNV-1" parent="WIyWlLk6GJQsqaUBKTNV-0" />
        <mxCell id="KkZ_NbrLw-nMhH_r0RWQ-1" style="edgeStyle=orthogonalEdgeStyle;rounded=0;orthogonalLoop=1;jettySize=auto;html=1;" parent="WIyWlLk6GJQsqaUBKTNV-1" source="WIyWlLk6GJQsqaUBKTNV-3" target="KkZ_NbrLw-nMhH_r0RWQ-0" edge="1">
          <mxGeometry relative="1" as="geometry" />
        </mxCell>
        <mxCell id="WIyWlLk6GJQsqaUBKTNV-3" value="User connects" style="rounded=1;whiteSpace=wrap;html=1;fontSize=12;glass=0;strokeWidth=1;shadow=0;" parent="WIyWlLk6GJQsqaUBKTNV-1" vertex="1">
          <mxGeometry x="160" y="80" width="120" height="40" as="geometry" />
        </mxCell>
        <mxCell id="KkZ_NbrLw-nMhH_r0RWQ-3" value="yes" style="edgeStyle=orthogonalEdgeStyle;rounded=0;orthogonalLoop=1;jettySize=auto;html=1;" parent="WIyWlLk6GJQsqaUBKTNV-1" source="KkZ_NbrLw-nMhH_r0RWQ-0" target="KkZ_NbrLw-nMhH_r0RWQ-2" edge="1">
          <mxGeometry relative="1" as="geometry" />
        </mxCell>
        <mxCell id="KkZ_NbrLw-nMhH_r0RWQ-8" value="no" style="edgeStyle=orthogonalEdgeStyle;rounded=0;orthogonalLoop=1;jettySize=auto;html=1;" parent="WIyWlLk6GJQsqaUBKTNV-1" source="KkZ_NbrLw-nMhH_r0RWQ-0" target="KkZ_NbrLw-nMhH_r0RWQ-4" edge="1">
          <mxGeometry relative="1" as="geometry" />
        </mxCell>
        <mxCell id="KkZ_NbrLw-nMhH_r0RWQ-0" value="are there 4&amp;nbsp;&lt;br&gt;players already" style="rhombus;whiteSpace=wrap;html=1;" parent="WIyWlLk6GJQsqaUBKTNV-1" vertex="1">
          <mxGeometry x="160" y="160" width="120" height="80" as="geometry" />
        </mxCell>
        <mxCell id="KkZ_NbrLw-nMhH_r0RWQ-2" value="DIsconnect" style="rounded=1;whiteSpace=wrap;html=1;" parent="WIyWlLk6GJQsqaUBKTNV-1" vertex="1">
          <mxGeometry x="320" y="170" width="120" height="60" as="geometry" />
        </mxCell>
        <mxCell id="KkZ_NbrLw-nMhH_r0RWQ-16" value="yes" style="edgeStyle=orthogonalEdgeStyle;rounded=0;orthogonalLoop=1;jettySize=auto;html=1;" parent="WIyWlLk6GJQsqaUBKTNV-1" source="KkZ_NbrLw-nMhH_r0RWQ-4" target="KkZ_NbrLw-nMhH_r0RWQ-5" edge="1">
          <mxGeometry relative="1" as="geometry" />
        </mxCell>
        <mxCell id="KkZ_NbrLw-nMhH_r0RWQ-17" value="no" style="edgeStyle=orthogonalEdgeStyle;rounded=0;orthogonalLoop=1;jettySize=auto;html=1;" parent="WIyWlLk6GJQsqaUBKTNV-1" source="KkZ_NbrLw-nMhH_r0RWQ-4" target="KkZ_NbrLw-nMhH_r0RWQ-9" edge="1">
          <mxGeometry relative="1" as="geometry" />
        </mxCell>
        <mxCell id="KkZ_NbrLw-nMhH_r0RWQ-4" value="has player disconnected?" style="rhombus;whiteSpace=wrap;html=1;" parent="WIyWlLk6GJQsqaUBKTNV-1" vertex="1">
          <mxGeometry x="160" y="320" width="120" height="80" as="geometry" />
        </mxCell>
        <mxCell id="KkZ_NbrLw-nMhH_r0RWQ-5" value="log player information" style="whiteSpace=wrap;html=1;" parent="WIyWlLk6GJQsqaUBKTNV-1" vertex="1">
          <mxGeometry x="320" y="330" width="120" height="60" as="geometry" />
        </mxCell>
        <mxCell id="KkZ_NbrLw-nMhH_r0RWQ-14" style="edgeStyle=orthogonalEdgeStyle;rounded=0;orthogonalLoop=1;jettySize=auto;html=1;" parent="WIyWlLk6GJQsqaUBKTNV-1" source="KkZ_NbrLw-nMhH_r0RWQ-9" target="KkZ_NbrLw-nMhH_r0RWQ-12" edge="1">
          <mxGeometry relative="1" as="geometry" />
        </mxCell>
        <mxCell id="KkZ_NbrLw-nMhH_r0RWQ-15" value="no" style="edgeStyle=orthogonalEdgeStyle;rounded=0;orthogonalLoop=1;jettySize=auto;html=1;" parent="WIyWlLk6GJQsqaUBKTNV-1" source="KkZ_NbrLw-nMhH_r0RWQ-9" target="KkZ_NbrLw-nMhH_r0RWQ-12" edge="1">
          <mxGeometry relative="1" as="geometry" />
        </mxCell>
        <mxCell id="I7_vdZbMyWwW1ImkkY6j-0" value="yes" style="edgeStyle=orthogonalEdgeStyle;rounded=0;orthogonalLoop=1;jettySize=auto;html=1;" parent="WIyWlLk6GJQsqaUBKTNV-1" source="KkZ_NbrLw-nMhH_r0RWQ-9" target="KkZ_NbrLw-nMhH_r0RWQ-42" edge="1">
          <mxGeometry x="-0.8" relative="1" as="geometry">
            <mxPoint x="220" y="610" as="targetPoint" />
            <mxPoint as="offset" />
          </mxGeometry>
        </mxCell>
        <mxCell id="KkZ_NbrLw-nMhH_r0RWQ-9" value="is it players turn?" style="rhombus;whiteSpace=wrap;html=1;" parent="WIyWlLk6GJQsqaUBKTNV-1" vertex="1">
          <mxGeometry x="160" y="440" width="120" height="80" as="geometry" />
        </mxCell>
        <mxCell id="KkZ_NbrLw-nMhH_r0RWQ-22" style="edgeStyle=orthogonalEdgeStyle;rounded=0;orthogonalLoop=1;jettySize=auto;html=1;" parent="WIyWlLk6GJQsqaUBKTNV-1" source="KkZ_NbrLw-nMhH_r0RWQ-10" target="KkZ_NbrLw-nMhH_r0RWQ-20" edge="1">
          <mxGeometry relative="1" as="geometry" />
        </mxCell>
        <mxCell id="KkZ_NbrLw-nMhH_r0RWQ-10" value="playRound()" style="whiteSpace=wrap;html=1;" parent="WIyWlLk6GJQsqaUBKTNV-1" vertex="1">
          <mxGeometry x="160" y="930" width="120" height="60" as="geometry" />
        </mxCell>
        <mxCell id="KkZ_NbrLw-nMhH_r0RWQ-12" value="Do nothing" style="whiteSpace=wrap;html=1;" parent="WIyWlLk6GJQsqaUBKTNV-1" vertex="1">
          <mxGeometry y="450" width="120" height="60" as="geometry" />
        </mxCell>
        <mxCell id="KkZ_NbrLw-nMhH_r0RWQ-24" style="edgeStyle=orthogonalEdgeStyle;rounded=0;orthogonalLoop=1;jettySize=auto;html=1;" parent="WIyWlLk6GJQsqaUBKTNV-1" source="KkZ_NbrLw-nMhH_r0RWQ-20" target="KkZ_NbrLw-nMhH_r0RWQ-21" edge="1">
          <mxGeometry relative="1" as="geometry" />
        </mxCell>
        <mxCell id="KkZ_NbrLw-nMhH_r0RWQ-20" value="get selected plupp" style="whiteSpace=wrap;html=1;" parent="WIyWlLk6GJQsqaUBKTNV-1" vertex="1">
          <mxGeometry x="320" y="930" width="120" height="60" as="geometry" />
        </mxCell>
        <mxCell id="KkZ_NbrLw-nMhH_r0RWQ-26" style="edgeStyle=orthogonalEdgeStyle;rounded=0;orthogonalLoop=1;jettySize=auto;html=1;" parent="WIyWlLk6GJQsqaUBKTNV-1" source="KkZ_NbrLw-nMhH_r0RWQ-21" target="KkZ_NbrLw-nMhH_r0RWQ-25" edge="1">
          <mxGeometry relative="1" as="geometry" />
        </mxCell>
        <mxCell id="KkZ_NbrLw-nMhH_r0RWQ-21" value="show answer area" style="whiteSpace=wrap;html=1;" parent="WIyWlLk6GJQsqaUBKTNV-1" vertex="1">
          <mxGeometry x="320" y="1040" width="120" height="60" as="geometry" />
        </mxCell>
        <mxCell id="KkZ_NbrLw-nMhH_r0RWQ-29" style="edgeStyle=orthogonalEdgeStyle;rounded=0;orthogonalLoop=1;jettySize=auto;html=1;" parent="WIyWlLk6GJQsqaUBKTNV-1" source="KkZ_NbrLw-nMhH_r0RWQ-25" target="KkZ_NbrLw-nMhH_r0RWQ-28" edge="1">
          <mxGeometry relative="1" as="geometry" />
        </mxCell>
        <mxCell id="KkZ_NbrLw-nMhH_r0RWQ-25" value="evaluate answer" style="whiteSpace=wrap;html=1;" parent="WIyWlLk6GJQsqaUBKTNV-1" vertex="1">
          <mxGeometry x="160" y="1040" width="120" height="60" as="geometry" />
        </mxCell>
        <mxCell id="KkZ_NbrLw-nMhH_r0RWQ-39" value="no" style="edgeStyle=orthogonalEdgeStyle;rounded=0;orthogonalLoop=1;jettySize=auto;html=1;" parent="WIyWlLk6GJQsqaUBKTNV-1" source="KkZ_NbrLw-nMhH_r0RWQ-28" target="KkZ_NbrLw-nMhH_r0RWQ-30" edge="1">
          <mxGeometry relative="1" as="geometry" />
        </mxCell>
        <mxCell id="KkZ_NbrLw-nMhH_r0RWQ-55" value="yes" style="edgeStyle=orthogonalEdgeStyle;rounded=0;orthogonalLoop=1;jettySize=auto;html=1;" parent="WIyWlLk6GJQsqaUBKTNV-1" source="KkZ_NbrLw-nMhH_r0RWQ-28" target="KkZ_NbrLw-nMhH_r0RWQ-40" edge="1">
          <mxGeometry relative="1" as="geometry" />
        </mxCell>
        <mxCell id="KkZ_NbrLw-nMhH_r0RWQ-28" value="answer is correct?" style="rhombus;whiteSpace=wrap;html=1;" parent="WIyWlLk6GJQsqaUBKTNV-1" vertex="1">
          <mxGeometry x="160" y="1150" width="120" height="80" as="geometry" />
        </mxCell>
        <mxCell id="KkZ_NbrLw-nMhH_r0RWQ-53" style="edgeStyle=orthogonalEdgeStyle;rounded=0;orthogonalLoop=1;jettySize=auto;html=1;" parent="WIyWlLk6GJQsqaUBKTNV-1" source="KkZ_NbrLw-nMhH_r0RWQ-30" target="KkZ_NbrLw-nMhH_r0RWQ-50" edge="1">
          <mxGeometry relative="1" as="geometry" />
        </mxCell>
        <mxCell id="KkZ_NbrLw-nMhH_r0RWQ-30" value="remove all plupps" style="whiteSpace=wrap;html=1;" parent="WIyWlLk6GJQsqaUBKTNV-1" vertex="1">
          <mxGeometry y="1160" width="120" height="60" as="geometry" />
        </mxCell>
        <mxCell id="I7_vdZbMyWwW1ImkkY6j-5" style="edgeStyle=orthogonalEdgeStyle;rounded=0;orthogonalLoop=1;jettySize=auto;html=1;" parent="WIyWlLk6GJQsqaUBKTNV-1" source="KkZ_NbrLw-nMhH_r0RWQ-35" target="I7_vdZbMyWwW1ImkkY6j-2" edge="1">
          <mxGeometry relative="1" as="geometry" />
        </mxCell>
        <mxCell id="KkZ_NbrLw-nMhH_r0RWQ-35" value="make it next players turn" style="whiteSpace=wrap;html=1;" parent="WIyWlLk6GJQsqaUBKTNV-1" vertex="1">
          <mxGeometry y="720" width="120" height="60" as="geometry" />
        </mxCell>
        <mxCell id="I7_vdZbMyWwW1ImkkY6j-1" style="edgeStyle=orthogonalEdgeStyle;rounded=0;orthogonalLoop=1;jettySize=auto;html=1;entryX=0;entryY=0.5;entryDx=0;entryDy=0;" parent="WIyWlLk6GJQsqaUBKTNV-1" source="KkZ_NbrLw-nMhH_r0RWQ-40" target="KkZ_NbrLw-nMhH_r0RWQ-35" edge="1">
          <mxGeometry relative="1" as="geometry">
            <Array as="points">
              <mxPoint x="-180" y="1300" />
              <mxPoint x="-180" y="750" />
            </Array>
          </mxGeometry>
        </mxCell>
        <mxCell id="KkZ_NbrLw-nMhH_r0RWQ-40" value="add one plupp to players pool" style="whiteSpace=wrap;html=1;" parent="WIyWlLk6GJQsqaUBKTNV-1" vertex="1">
          <mxGeometry x="160" y="1270" width="120" height="60" as="geometry" />
        </mxCell>
        <mxCell id="KkZ_NbrLw-nMhH_r0RWQ-48" value="no" style="edgeStyle=orthogonalEdgeStyle;rounded=0;orthogonalLoop=1;jettySize=auto;html=1;" parent="WIyWlLk6GJQsqaUBKTNV-1" source="KkZ_NbrLw-nMhH_r0RWQ-42" target="KkZ_NbrLw-nMhH_r0RWQ-10" edge="1">
          <mxGeometry relative="1" as="geometry" />
        </mxCell>
        <mxCell id="KkZ_NbrLw-nMhH_r0RWQ-57" value="yes" style="edgeStyle=orthogonalEdgeStyle;rounded=0;orthogonalLoop=1;jettySize=auto;html=1;" parent="WIyWlLk6GJQsqaUBKTNV-1" source="KkZ_NbrLw-nMhH_r0RWQ-42" target="KkZ_NbrLw-nMhH_r0RWQ-50" edge="1">
          <mxGeometry relative="1" as="geometry" />
        </mxCell>
        <mxCell id="KkZ_NbrLw-nMhH_r0RWQ-42" value="does player pass?" style="rhombus;whiteSpace=wrap;html=1;" parent="WIyWlLk6GJQsqaUBKTNV-1" vertex="1">
          <mxGeometry x="160" y="820" width="120" height="80" as="geometry" />
        </mxCell>
        <mxCell id="KkZ_NbrLw-nMhH_r0RWQ-49" style="edgeStyle=orthogonalEdgeStyle;rounded=0;orthogonalLoop=1;jettySize=auto;html=1;" parent="WIyWlLk6GJQsqaUBKTNV-1" source="KkZ_NbrLw-nMhH_r0RWQ-44" target="KkZ_NbrLw-nMhH_r0RWQ-35" edge="1">
          <mxGeometry relative="1" as="geometry">
            <Array as="points">
              <mxPoint x="-80" y="750" />
            </Array>
          </mxGeometry>
        </mxCell>
        <mxCell id="KkZ_NbrLw-nMhH_r0RWQ-44" value="make so player.passed = true" style="whiteSpace=wrap;html=1;" parent="WIyWlLk6GJQsqaUBKTNV-1" vertex="1">
          <mxGeometry x="-140" y="810" width="120" height="60" as="geometry" />
        </mxCell>
        <mxCell id="KkZ_NbrLw-nMhH_r0RWQ-51" style="edgeStyle=orthogonalEdgeStyle;rounded=0;orthogonalLoop=1;jettySize=auto;html=1;" parent="WIyWlLk6GJQsqaUBKTNV-1" source="KkZ_NbrLw-nMhH_r0RWQ-50" target="KkZ_NbrLw-nMhH_r0RWQ-44" edge="1">
          <mxGeometry relative="1" as="geometry" />
        </mxCell>
        <mxCell id="KkZ_NbrLw-nMhH_r0RWQ-50" value="add players number of plupps to players points" style="whiteSpace=wrap;html=1;" parent="WIyWlLk6GJQsqaUBKTNV-1" vertex="1">
          <mxGeometry y="930" width="120" height="60" as="geometry" />
        </mxCell>
        <mxCell id="I7_vdZbMyWwW1ImkkY6j-3" value="yes" style="edgeStyle=orthogonalEdgeStyle;rounded=0;orthogonalLoop=1;jettySize=auto;html=1;" parent="WIyWlLk6GJQsqaUBKTNV-1" source="I7_vdZbMyWwW1ImkkY6j-2" target="KkZ_NbrLw-nMhH_r0RWQ-35" edge="1">
          <mxGeometry x="-0.8261" relative="1" as="geometry">
            <Array as="points">
              <mxPoint x="-50" y="620" />
              <mxPoint x="-50" y="750" />
            </Array>
            <mxPoint as="offset" />
          </mxGeometry>
        </mxCell>
        <mxCell id="I7_vdZbMyWwW1ImkkY6j-4" value="no" style="edgeStyle=orthogonalEdgeStyle;rounded=0;orthogonalLoop=1;jettySize=auto;html=1;" parent="WIyWlLk6GJQsqaUBKTNV-1" source="I7_vdZbMyWwW1ImkkY6j-2" target="KkZ_NbrLw-nMhH_r0RWQ-42" edge="1">
          <mxGeometry x="-0.8667" relative="1" as="geometry">
            <mxPoint as="offset" />
          </mxGeometry>
        </mxCell>
        <mxCell id="I7_vdZbMyWwW1ImkkY6j-2" value="&lt;div&gt;has the player &lt;br&gt;&lt;/div&gt;&lt;div&gt;passed?&lt;br&gt;&lt;/div&gt;" style="rhombus;whiteSpace=wrap;html=1;" parent="WIyWlLk6GJQsqaUBKTNV-1" vertex="1">
          <mxGeometry y="580" width="120" height="80" as="geometry" />
        </mxCell>
        <mxCell id="0eRnfrw0cxP9yQeRJgG6-4" value="&lt;div&gt;yes&lt;/div&gt;" style="edgeStyle=orthogonalEdgeStyle;rounded=0;orthogonalLoop=1;jettySize=auto;html=1;" edge="1" parent="WIyWlLk6GJQsqaUBKTNV-1" source="0eRnfrw0cxP9yQeRJgG6-1" target="0eRnfrw0cxP9yQeRJgG6-3">
          <mxGeometry relative="1" as="geometry">
            <Array as="points">
              <mxPoint x="-380" y="760" />
            </Array>
          </mxGeometry>
        </mxCell>
        <mxCell id="0eRnfrw0cxP9yQeRJgG6-7" value="no" style="edgeStyle=orthogonalEdgeStyle;rounded=0;orthogonalLoop=1;jettySize=auto;html=1;" edge="1" parent="WIyWlLk6GJQsqaUBKTNV-1" source="0eRnfrw0cxP9yQeRJgG6-1" target="0eRnfrw0cxP9yQeRJgG6-5">
          <mxGeometry x="-0.6364" relative="1" as="geometry">
            <mxPoint as="offset" />
          </mxGeometry>
        </mxCell>
        <mxCell id="0eRnfrw0cxP9yQeRJgG6-1" value="is the  player index 4 or larger?" style="rhombus;whiteSpace=wrap;html=1;" vertex="1" parent="WIyWlLk6GJQsqaUBKTNV-1">
          <mxGeometry x="-560" y="720" width="120" height="80" as="geometry" />
        </mxCell>
        <mxCell id="0eRnfrw0cxP9yQeRJgG6-3" value="set the player index to 0" style="whiteSpace=wrap;html=1;" vertex="1" parent="WIyWlLk6GJQsqaUBKTNV-1">
          <mxGeometry x="-440" y="640" width="120" height="60" as="geometry" />
        </mxCell>
        <mxCell id="0eRnfrw0cxP9yQeRJgG6-5" value="has player passed?" style="rhombus;whiteSpace=wrap;html=1;" vertex="1" parent="WIyWlLk6GJQsqaUBKTNV-1">
          <mxGeometry x="-560" y="530" width="120" height="80" as="geometry" />
        </mxCell>
        <mxCell id="0eRnfrw0cxP9yQeRJgG6-6" value="make it the next players turn" style="whiteSpace=wrap;html=1;" vertex="1" parent="WIyWlLk6GJQsqaUBKTNV-1">
          <mxGeometry x="-680" y="640" width="120" height="60" as="geometry" />
        </mxCell>
      </root>
    </mxGraphModel>
  </diagram>
</mxfile>
